<?xml version="1.0" encoding="utf-8" ?><svg xmlns="http://www.w3.org/2000/svg" xmlns:xlink="http://www.w3.org/1999/xlink" width="1024" height="1024" viewBox="0 0 1024 1024"><path fill="#38221F" d="M694.873 127.259C704.549 126.125 704.669 131.591 704.891 139.901C705.878 176.853 698.719 213.918 691.778 250.078C689.745 257.612 688.508 271.523 684.826 278.094C682.045 283.058 669.736 291.894 665.366 296.881C676.205 300.833 673.915 301.841 671.007 311.291C663.487 335.728 651.206 357.425 640.945 380.621C622.845 421.538 605.533 462.968 586.075 503.273C581.797 512.135 576.815 520.3 571.117 528.314C571.966 533.367 570.396 537.802 568.44 542.468C560.264 561.969 551.007 583.67 536.384 599.222C525.433 610.87 510.932 620.555 497.929 629.692L531.189 626.397C503.963 650.491 468.562 669.437 435.501 683.973C433.426 688.462 427.695 717.223 426.404 723.317C421.391 746.416 416.614 769.565 412.072 792.761C407.251 817.265 403.063 843.902 394.31 867.364C390.553 877.435 380.383 902.1 370.236 907.057C367.897 908.199 365.908 907.507 363.686 906.56C362.736 905.604 361.903 904.639 361.224 903.467C347.112 879.11 371.874 789.697 378.599 762.487C386.169 732.421 393.953 702.408 401.948 672.452C386.606 640.652 374.984 597.074 375.295 561.613C375.387 551.113 376.489 542.301 377.921 531.937C382.109 535.158 386.219 538.854 390.616 542.241C387.52 526.722 384.933 497.002 389.482 481.469C402.205 438.023 427.459 394.786 453.058 357.549C457.899 350.508 461.664 350.064 468.061 355.191C469.705 336.314 476.672 320.811 487.803 305.679C501.479 287.465 515.411 269.446 529.597 251.627C536.887 242.435 544.037 233.102 551.885 224.382C558.115 217.46 562.352 220.352 568.595 225.206C570.489 218.326 573.047 207.322 576.251 201.349C578.068 197.964 588.374 190.545 591.969 187.855C614.274 171.16 670.002 133.025 694.873 127.259Z"/><path fill="#DFD2AA" d="M688.854 142.766C690.278 142.243 691.399 141.795 692.875 141.407C695.282 174.148 687.081 218.603 680.493 250.753C679.493 255.635 676.598 270.283 673.484 273.594C667.074 280.408 655.84 288.253 648.061 293.66L612.674 317.967C607.935 321.207 601.981 324.924 597.511 328.227C617.986 323.301 638.368 317.997 658.647 312.317C650.297 332.704 641.137 350.261 632.481 369.919C627.514 381.361 622.695 392.867 618.028 404.435C612.511 417.924 603.759 440.406 594.724 451.415C585.993 462.054 570.746 474.139 559.886 482.784C547.739 492.435 535.541 502.022 523.292 511.543C544.316 503.494 562.154 494.46 582.316 484.548C578.277 493.147 571.186 508.717 565.382 516.015C553.563 530.874 530.295 541.856 513.709 550.716C506.431 554.67 499.214 558.737 492.061 562.914C516.994 557.152 532.964 551.49 556.19 540.992C535.728 587.246 526.007 598.471 482.109 625.333C477.308 628.271 459.6 640.118 455.015 643.824C465.215 644.244 479.373 644.109 489.415 642.919C477.154 650.274 451.742 664.908 438.416 670.131C463.769 568.541 500.058 469.998 546.649 376.229C557.451 354.458 568.935 333.031 581.083 311.981C588.537 299.184 619.74 250.691 622.613 239.113C640.448 210.609 660.305 183.472 679.869 156.158C682.15 152.973 688.343 146.171 688.854 142.766Z"/><path fill="#FAE8C7" d="M563.365 301.36C565.105 295.503 567.049 284.641 568.364 278.368L577.903 233.551C579.527 226.229 581.763 215.692 584.691 208.875C586.113 205.563 595.604 198.975 598.978 196.479C619.942 180.981 641.928 166.914 664.786 154.375C671.771 150.584 681.465 145.375 688.854 142.766C688.343 146.171 682.15 152.973 679.869 156.158C660.305 183.472 640.448 210.609 622.613 239.113C602.728 262.962 580.706 297.102 563.67 323.722C498.502 425.551 442.247 540.403 407.52 656.558C394.818 629.735 387.873 591.517 386.836 561.939C395.814 577.129 404.922 589.258 415.433 603.358C414.265 596.819 412.197 588.796 410.725 582.194C408.033 569.993 405.502 557.757 403.131 545.49C400.04 528.852 396.905 511.142 398.775 494.188C402.543 460.034 439.666 397.803 459.544 368.784C462.09 381.181 466.812 396.24 470.39 408.381C472.532 415.652 476.255 427.336 479.267 434.166C478.792 421.69 478.437 409.209 478.202 396.726C476.697 339.162 480.849 333.303 515.694 288.151C528.644 271.276 541.905 254.643 555.472 238.26C557.497 256.187 559.624 284.406 563.365 301.36Z"/><path fill="#FAE8C7" d="M510.382 434.904C510.434 438.891 478.894 511.35 474.353 523.378C458.587 565.995 444.753 609.303 432.894 653.169C425.695 679.622 417.19 713.274 412.185 740.354C407.709 737.649 406.009 737.058 401.05 736.002C398.933 735.968 397.053 736.317 395.749 735.012C395.556 733.486 401.229 711.942 401.936 709.099C416.477 650.572 438.368 592.33 461.087 536.502C474.478 503.595 490.688 464.034 510.382 434.904Z"/><path fill="#9B6D3B" d="M393.499 744.454C400.227 744.045 404.648 746.239 410.126 749.569L398.949 804.488C393.434 831.833 388.553 857.629 376.171 882.706C373.947 886.792 372.203 889.546 369.603 893.426C363.567 865.139 378.315 808.099 384.737 779.318C386.661 770.692 390.858 752.423 393.499 744.454Z"/></svg>