<?xml version="1.0" encoding="UTF-8" standalone="no"?>
<svg
   version="1.1"
   style="display: block;"
   viewBox="0 0 2048 2048"
   width="1024"
   height="1024"
   preserveAspectRatio="none"
   id="svg64"
   sodipodi:docname="svg-ai-make-the-background-transparent-and-keep-everythin-2025-11-22.svg"
   inkscape:version="1.4.2 (ebf0e940, 2025-05-08)"
   xmlns:inkscape="http://www.inkscape.org/namespaces/inkscape"
   xmlns:sodipodi="http://sodipodi.sourceforge.net/DTD/sodipodi-0.dtd"
   xmlns="http://www.w3.org/2000/svg"
   xmlns:svg="http://www.w3.org/2000/svg">
  <sodipodi:namedview
     id="namedview64"
     pagecolor="#505050"
     bordercolor="#ffffff"
     borderopacity="1"
     inkscape:showpageshadow="0"
     inkscape:pageopacity="0"
     inkscape:pagecheckerboard="1"
     inkscape:deskcolor="#505050"
     inkscape:zoom="1.2995576"
     inkscape:cx="473.62271"
     inkscape:cy="514.40582"
     inkscape:window-width="2080"
     inkscape:window-height="1696"
     inkscape:window-x="2080"
     inkscape:window-y="31"
     inkscape:window-maximized="0"
     inkscape:current-layer="svg64" />
  <defs
     id="defs2">
    <linearGradient
       id="Gradient1"
       gradientUnits="userSpaceOnUse"
       x1="1084.42"
       y1="437.887"
       x2="1062.57"
       y2="451.495">
      <stop
         class="stop0"
         offset="0"
         stop-opacity="1"
         stop-color="rgb(162,116,80)"
         id="stop1" />
      <stop
         class="stop1"
         offset="1"
         stop-opacity="1"
         stop-color="rgb(179,139,97)"
         id="stop2" />
    </linearGradient>
  </defs>
  <path
     transform="translate(0,0)"
     fill="rgb(85,52,27)"
     d="M 990.831 298.313 C 1018.18 297.499 1036.34 298.082 1062.17 310.769 C 1094.07 326.436 1116.63 366.99 1127.22 399.516 C 1132.13 414.598 1134.68 432.351 1140.05 448.272 L 1140.62 449.96 C 1151.22 450.455 1164.03 448.55 1175.15 447.849 C 1204.66 446.009 1236.37 444.131 1265.72 447.585 C 1288.76 450.297 1323.21 459.943 1315.01 490.532 C 1307.59 518.164 1269.17 537.136 1246.17 550.937 C 1234.63 557.868 1221.85 562.111 1210.45 569.978 C 1220.92 590.119 1232.29 609.783 1244.51 628.911 C 1256.56 648.095 1289.28 696.58 1294.16 715.044 C 1293.42 716.08 1290.29 720.42 1290.36 721.593 C 1291.55 741.991 1322.88 760.955 1303.46 780.136 C 1305.6 786.507 1307.99 793.297 1308.96 799.962 C 1310.84 812.928 1310.07 826.582 1314.97 838.942 C 1324.93 864.205 1337.36 888.105 1348.89 912.737 C 1377.64 974.132 1400.78 1042.68 1394.34 1111.39 C 1392.82 1127.58 1387.99 1144.19 1387.17 1160.53 C 1385.35 1197 1387.12 1233.2 1390.78 1269.5 C 1397.85 1331.22 1418.67 1391.47 1424.45 1453.2 C 1425.55 1464.98 1425.88 1489.05 1424.63 1500.61 C 1419.36 1549.36 1402.03 1596.76 1374.39 1637.24 C 1365.18 1650.71 1350.19 1664.09 1339.56 1676.02 C 1359.87 1687.03 1385.06 1703.38 1397.99 1722.65 C 1415.48 1748.72 1372.72 1738.57 1365.73 1741.67 C 1364.13 1745.56 1363.08 1749.3 1359.08 1751.08 C 1345.8 1757 1320.75 1747.96 1307.77 1743.57 C 1304.51 1747.21 1302.63 1749.91 1299.83 1753.85 C 1290.6 1754.15 1282.06 1754.61 1272.83 1753.04 C 1216.54 1743.46 1177.34 1700.97 1127.88 1681.15 C 1076.74 1660.67 1005.13 1661.29 951.199 1674.02 C 937.546 1680.06 920.523 1682.47 908.641 1691.94 C 904.462 1695.28 901.056 1699.57 897.072 1703.13 C 883.638 1715.15 763.586 1748.33 743.216 1746.87 C 736.34 1746.38 732.992 1741.53 728.939 1736.64 C 718.337 1739.55 702.124 1744.69 691.604 1741.47 C 685.337 1739.55 684.197 1737.07 681.193 1731.61 C 674.846 1732.63 665.638 1732.75 658.972 1733.02 C 654.649 1730.88 652.449 1730.15 650.626 1725.6 C 650.48 1720.81 654.216 1714.04 657.056 1710.48 C 682.685 1678.35 723.14 1670.73 759.926 1664.02 C 742.263 1646.67 726.793 1635.43 710.977 1614.96 C 670.067 1562.02 658.06 1505.5 669.084 1439.88 C 678.116 1386.11 715.475 1316.6 700.438 1261.74 C 631.741 1243.01 609.595 1172.81 622.999 1107.73 C 628.201 1082.47 648.022 1046.77 664.258 1025.99 C 662.238 1019.65 660.494 1011.57 658.895 1004.98 C 660.425 997.137 661.222 995.79 666.671 989.924 C 673.233 988.73 677.509 988.297 684.163 987.765 C 684.527 987.468 684.888 987.166 685.256 986.875 C 692.049 981.493 751.153 898.09 753.976 889.997 C 761.689 867.881 743.81 854.392 735.22 836.815 C 732.187 830.609 731.898 823.543 728.698 817.289 C 723.669 816.562 721.212 823.747 714.358 820.595 C 706.174 807.247 718.178 775.538 716.589 767.885 C 714.415 766.626 712.568 765.47 710.464 764.122 C 708.078 758.948 709.954 753.827 711.277 748.318 C 724.56 693.008 755.38 667.775 757.534 608.011 C 749.249 605.062 741.427 604.579 732.393 602.744 C 706.002 597.383 657.569 586.417 650.282 555.385 C 647.27 542.557 660.313 528.98 671.278 523.492 C 710.018 504.102 754.601 497.907 797.227 492.974 C 802.804 492.955 803.219 483.627 803.211 479.476 C 802.657 455.079 803.449 431.822 805.375 407.512 C 809.027 361.406 842.519 314.821 891.997 314.088 C 904.163 313.121 921.912 316.093 933.451 313.497 C 953.61 308.961 969.853 301.714 990.831 298.313 z"
     id="path2" />
  <path
     transform="translate(0,0)"
     fill="rgb(159,112,70)"
     d="M 800.34 545.552 C 914.563 548.567 1039 525.377 1147.63 490.715 C 1161.83 486.184 1176.02 479.618 1190.61 476.346 L 1191.99 476.043 C 1200.15 479.844 1205.69 483.987 1210.72 491.623 C 1228.16 518.053 1209.86 542.514 1187.63 556.766 C 1206.9 597.433 1225.92 637.583 1258.82 669.316 C 1253.43 668.486 1248.55 668.171 1243.14 667.766 C 1247.3 670.914 1264.83 688.946 1269.92 693.927 L 1255.26 695.343 C 1261.45 698.665 1273.35 706.992 1280.16 711.214 C 1274.73 711.761 1268.59 712.056 1263.09 712.433 C 1275.53 728.807 1287.08 741.923 1294.02 761.422 C 1287.61 760.872 1280.92 760.071 1274.5 759.402 L 1274.72 759.702 C 1280.94 768.099 1299.9 802.695 1299.9 813.221 C 1292.89 835.292 1336.62 918.272 1346.69 943.635 C 1369.78 1001.82 1386.76 1054.19 1377.79 1118.04 C 1371.36 1163.79 1362.5 1186.61 1331.66 1220.08 C 1330.19 1216.35 1327.93 1209.17 1325.22 1206.8 C 1323.34 1208.15 1317.44 1222.61 1313.2 1228.86 C 1309.1 1229.3 1298.45 1229.89 1295.87 1232.04 C 1294.56 1236.5 1294.63 1239.46 1289.5 1241.8 C 1248.97 1260.28 1191.14 1249.25 1149.43 1239.13 C 1130.56 1234.55 1117.55 1227.67 1098.5 1226.71 L 1091.93 1226.36 C 1084.86 1194.17 1070.26 1161.27 1061.52 1129.39 C 1060.25 1124.74 1058.69 1118.74 1057.07 1114.36 C 1078.6 1111.5 1097.72 1109.04 1116.25 1123.2 C 1120.48 1126.43 1127.59 1135.54 1132.76 1134.91 C 1134.16 1127.93 1128.88 1123.83 1124.12 1119.35 C 1142.53 1113.67 1160.85 1105.68 1176.94 1095.06 C 1193.29 1084.26 1198.57 1079.39 1216.24 1071.56 C 1208.63 1070.94 1207.5 1071.01 1199.98 1071.95 L 1198 1072.18 L 1196.81 1072.33 C 1194.12 1065.21 1190.79 1043.49 1187.28 1039.75 L 1186.68 1039.78 L 1185.99 1040.94 L 1187.36 1039.82 C 1183 1045.58 1184.87 1070.99 1185.12 1079.58 C 1176.7 1084.46 1157.3 1096.2 1148.76 1099.21 C 1148.43 1096.23 1148.28 1095.52 1147.47 1092.63 C 1144.58 1090.31 1145.1 1091.03 1140.81 1090.45 C 1144.18 1084.23 1165.89 1063.6 1172.19 1055.51 C 1186.55 1037.08 1202.21 1017.92 1217.12 999.88 C 1212.87 978.224 1201.48 966.251 1178.85 964.592 C 1155.39 976.812 1127.68 1018.37 1106.14 1040.28 C 1099.92 1050.31 1062.56 1092.42 1052.48 1099 C 1048.87 1090.75 1044.48 1074.3 1041.76 1065.24 C 1036.17 1046.35 1030.32 1027.55 1024.22 1008.82 C 1021.84 998.092 1018.34 975.239 1004.77 975.548 C 976.828 976.184 948.48 977.07 920.505 977.727 C 918.592 976.507 912.299 967.386 908.906 964.223 C 902.863 963.867 866.101 965.02 864.897 962.483 C 857.029 945.892 856.235 925.47 830.858 925.335 C 800.802 925.175 794.329 940.584 794.304 968.281 C 784.413 969.525 773.849 968.09 762.982 969.521 C 749.132 971.345 753.851 980.698 750.332 982.763 C 743.59 986.717 709.193 985.933 702.705 985.99 C 728.424 956.143 759.975 914.482 768.696 875.867 C 774.355 880.754 790.699 897.109 797.864 895.827 C 779.656 865.866 749.904 846.979 741.592 813.674 C 740.11 807.736 739.705 796.781 739.35 790.276 C 734.465 794.548 729.591 798.439 724.531 802.492 C 725.05 792.052 726.92 783.15 729.598 773.108 C 731.048 767.674 736.3 760.324 736.338 757.575 C 732.472 755.774 729.016 755.95 724.708 755.683 C 729.307 750.999 735.327 743.443 739.632 738.307 L 726.83 737.875 C 731.937 729.439 736.488 717.571 740.589 708.378 C 746.989 694.031 759.734 672.336 763.335 657.271 C 772.266 619.907 773.376 576.856 800.34 545.552 z"
     id="path3" />
  <path
     transform="translate(0,0)"
     fill="rgb(116,83,46)"
     d="M 1270.76 809.166 C 1281.84 809.767 1288.51 813.884 1299.9 813.221 C 1292.89 835.292 1336.62 918.272 1346.69 943.635 C 1369.78 1001.82 1386.76 1054.19 1377.79 1118.04 C 1371.36 1163.79 1362.5 1186.61 1331.66 1220.08 C 1330.19 1216.35 1327.93 1209.17 1325.22 1206.8 C 1323.34 1208.15 1317.44 1222.61 1313.2 1228.86 C 1309.1 1229.3 1298.45 1229.89 1295.87 1232.04 C 1294.56 1236.5 1294.63 1239.46 1289.5 1241.8 C 1248.97 1260.28 1191.14 1249.25 1149.43 1239.13 C 1130.56 1234.55 1117.55 1227.67 1098.5 1226.71 L 1091.93 1226.36 C 1084.86 1194.17 1070.26 1161.27 1061.52 1129.39 C 1060.25 1124.74 1058.69 1118.74 1057.07 1114.36 C 1078.6 1111.5 1097.72 1109.04 1116.25 1123.2 C 1120.48 1126.43 1127.59 1135.54 1132.76 1134.91 C 1134.16 1127.93 1128.88 1123.83 1124.12 1119.35 C 1142.53 1113.67 1160.85 1105.68 1176.94 1095.06 C 1193.29 1084.26 1198.57 1079.39 1216.24 1071.56 C 1208.63 1070.94 1207.5 1071.01 1199.98 1071.95 L 1198 1072.18 L 1196.81 1072.33 C 1194.12 1065.21 1190.79 1043.49 1187.28 1039.75 L 1186.68 1039.78 L 1185.99 1040.94 L 1187.36 1039.82 C 1183 1045.58 1184.87 1070.99 1185.12 1079.58 C 1176.7 1084.46 1157.3 1096.2 1148.76 1099.21 C 1148.43 1096.23 1148.28 1095.52 1147.47 1092.63 C 1144.58 1090.31 1145.1 1091.03 1140.81 1090.45 C 1144.18 1084.23 1165.89 1063.6 1172.19 1055.51 C 1186.55 1037.08 1202.21 1017.92 1217.12 999.88 C 1212.87 978.224 1201.48 966.251 1178.85 964.592 C 1155.39 976.812 1127.68 1018.37 1106.14 1040.28 C 1099.92 1050.31 1062.56 1092.42 1052.48 1099 C 1048.87 1090.75 1044.48 1074.3 1041.76 1065.24 C 1036.17 1046.35 1030.32 1027.55 1024.22 1008.82 C 1021.84 998.092 1018.34 975.239 1004.77 975.548 C 976.828 976.184 948.48 977.07 920.505 977.727 C 918.592 976.507 912.299 967.386 908.906 964.223 C 902.863 963.867 866.101 965.02 864.897 962.483 C 857.029 945.892 856.235 925.47 830.858 925.335 C 800.802 925.175 794.329 940.584 794.304 968.281 C 784.413 969.525 773.849 968.09 762.982 969.521 C 749.132 971.345 753.851 980.698 750.332 982.763 C 743.59 986.717 709.193 985.933 702.705 985.99 C 728.424 956.143 759.975 914.482 768.696 875.867 C 774.355 880.754 790.699 897.109 797.864 895.827 C 801.241 898.193 801.082 904.858 806.511 905.943 C 808.386 904.499 810.075 903.281 812.017 901.928 C 814.796 902.06 862.163 932.249 866.269 935.335 C 865.954 930.421 864.987 924.562 864.304 919.607 C 872.054 924.013 879.476 930.172 887.275 934.474 C 900.984 942.036 911.316 944.815 923.506 955.085 C 919.381 944.477 918.964 943.321 917.724 932.361 C 935.398 945.199 942.336 948.641 961.936 957.073 C 974.634 951.746 990.206 940.917 1005.77 934.093 C 1004.78 939.416 1003.29 945.783 1004.18 950.989 L 1005.81 951.943 C 1017.67 950.925 1043.4 927.378 1054.28 919.882 C 1058.71 926.544 1060.41 931.15 1062.9 938.55 C 1075.52 930.481 1089.26 918.391 1100.36 908.215 C 1110.02 910.229 1120.06 913.523 1129.55 916.404 C 1140.87 909.038 1151.11 896.523 1162.48 887.903 C 1167.62 889.308 1174.39 892.112 1179.54 894.074 L 1197.33 867.428 L 1229.55 864.418 C 1235.98 855.438 1240.22 845.064 1244.52 834.945 C 1254.12 835.471 1263.71 836.247 1273.27 837.271 L 1270.76 809.166 z"
     id="path4" />
  <path
     transform="translate(0,0)"
     fill="rgb(159,112,70)"
     d="M 1024.22 1008.82 L 1025.57 1007.44 C 1030.73 1009.58 1056.69 1029.71 1061.59 1033.85 C 1063.12 1025.61 1064.58 1017.07 1066.25 1008.88 C 1073.11 1017.03 1089.09 1040.26 1095.02 1045.28 C 1095.89 1041.22 1096.38 1035.43 1098.73 1032.76 C 1101.98 1034.13 1103.58 1037.48 1106.14 1040.28 C 1099.92 1050.31 1062.56 1092.42 1052.48 1099 C 1048.87 1090.75 1044.48 1074.3 1041.76 1065.24 C 1036.17 1046.35 1030.32 1027.55 1024.22 1008.82 z"
     id="path5" />
  <path
     transform="translate(0,0)"
     fill="rgb(85,52,27)"
     d="M 830.309 703.612 C 825.739 690.311 836.168 675.862 846.195 668.014 C 873.606 646.561 920.413 646.407 943.594 674.297 C 947.515 679.014 948.945 683.3 948.048 689.222 C 936.295 715.092 917.368 720.035 897.083 741.458 C 898.792 752.795 902.144 781.655 911.209 787.693 C 926.395 797.81 996.083 813.613 1001.94 832.677 C 997.082 841.802 954.901 822.394 946.848 819.306 C 946.85 828.808 948.195 862.978 942.901 867.438 C 934.379 874.617 898.491 877.016 891.284 865.322 C 884.776 854.764 875.733 838.833 874.622 827.418 C 870.629 834.213 861.043 839.287 853.038 838.627 C 843.918 829.123 882.377 799.502 890.198 791.269 C 888.362 776.289 885.174 757.53 881.386 743.047 C 863.562 731.593 839.957 722.62 830.309 703.612 z"
     id="path6" />
  <path
     transform="translate(0,0)"
     fill="rgb(248,248,246)"
     d="M 905.322 804.887 C 918.899 810.005 932.987 813.996 946.848 819.306 C 946.85 828.808 948.195 862.978 942.901 867.438 C 934.379 874.617 898.491 877.016 891.284 865.322 C 884.776 854.764 875.733 838.833 874.622 827.418 C 882.238 820.179 891.162 813.362 899.412 806.769 C 902.351 825.382 907.571 843.562 914.953 860.899 C 913.054 844.597 908.217 821.571 905.322 804.887 z"
     id="path7" />
  <path
     transform="translate(0,0)"
     fill="rgb(116,83,46)"
     d="M 830.309 703.612 C 825.739 690.311 836.168 675.862 846.195 668.014 C 873.606 646.561 920.413 646.407 943.594 674.297 C 947.515 679.014 948.945 683.3 948.048 689.222 C 930.565 667.262 902.759 692.174 883.83 694.631 C 871.376 696.247 851.85 691.399 837.78 691.237 C 832.712 696.539 832.838 697.024 830.309 703.612 z"
     id="path8" />
  <path
     transform="translate(0,0)"
     fill="rgb(85,52,27)"
     d="M 1039.58 584.227 C 1053.55 583.222 1064.78 583.735 1076.6 592.527 C 1092.3 604.219 1092.15 625.064 1079.95 639.294 C 1067.88 653.369 1051.6 656.3 1034.15 657.914 C 1019.93 657.04 1008.9 656.168 996.472 647.73 C 984.723 639.751 977.412 625.778 987.645 613.249 C 1000.72 597.247 1019.18 587.318 1039.58 584.227 z"
     id="path9" />
  <path
     transform="translate(0,0)"
     fill="rgb(248,248,246)"
     d="M 1028.8 598.091 L 1029.48 599.03 C 1016.81 617.997 1017.85 628.992 1030.6 648.043 C 1021.78 646.977 1015.85 646.537 1007.42 643.664 C 968.228 626.623 1009.52 605.791 1028.8 598.091 z"
     id="path10" />
  <path
     transform="translate(0,0)"
     fill="rgb(248,248,246)"
     d="M 1035.25 609.911 C 1039.12 608.844 1043.16 610.96 1044.49 614.753 C 1045.82 618.547 1043.98 622.722 1040.29 624.308 C 1037.67 625.435 1034.63 625.005 1032.42 623.192 C 1030.22 621.38 1029.2 618.488 1029.8 615.693 C 1030.39 612.899 1032.49 610.669 1035.25 609.911 z"
     id="path11" />
  <path
     transform="translate(0,0)"
     fill="rgb(85,52,27)"
     d="M 802.817 610.073 C 819.579 609.585 837.045 619.184 842.981 635.358 C 845.684 642.666 845.132 650.78 841.465 657.655 C 836.089 667.819 829.42 670.035 819.539 673.178 C 810.83 675.242 803.811 674.276 795.858 669.602 C 787.554 664.762 781.587 656.741 779.337 647.397 C 774.558 627.932 783.983 614.726 802.817 610.073 z"
     id="path12" />
  <path
     transform="translate(0,0)"
     fill="rgb(248,248,246)"
     d="M 799.522 619.115 C 804.347 618.964 809.603 618.57 813.927 620.711 C 813.73 629.679 791.507 634.779 807.968 662.881 C 807.333 663.624 807.827 663.158 806.118 663.728 C 787.118 654.525 779.487 630.218 799.522 619.115 z"
     id="path13" />
  <path
     transform="translate(0,0)"
     fill="rgb(248,248,246)"
     d="M 814.456 633.788 C 816.671 633.215 819.024 633.879 820.613 635.526 C 822.202 637.174 822.781 639.549 822.128 641.742 C 821.476 643.936 819.693 645.608 817.462 646.119 C 814.079 646.894 810.701 644.808 809.879 641.436 C 809.057 638.064 811.096 634.657 814.456 633.788 z"
     id="path14" />
  <path
     transform="translate(0,0)"
     fill="rgb(85,52,27)"
     d="M 1046.91 541.393 C 1063.32 540.048 1073.36 543.971 1087.64 551.218 C 1075.89 555.215 1065.59 557.933 1054.04 562.94 C 1028.28 574.103 1005.36 589.447 980.707 602.711 C 954.378 613.435 944.667 582.53 954.805 579.495 C 958.178 580.677 959.844 583.916 961.989 586.948 C 984.608 569.332 1018.39 544.204 1046.91 541.393 z"
     id="path15" />
  <path
     transform="translate(0,0)"
     fill="rgb(85,52,27)"
     d="M 1178.16 541.61 C 1165.7 538.975 1148.82 523.678 1156.14 509.51 C 1165.73 490.921 1194.54 480.279 1202.82 505.071 C 1202.61 509.474 1201.89 517.119 1199.62 520.913 C 1198.02 532.173 1190.69 543.002 1178.16 541.61 z"
     id="path16" />
  <path
     transform="translate(0,0)"
     fill="rgb(116,83,46)"
     d="M 1188.94 533.567 C 1187.48 529.498 1184.22 526.296 1183.1 521.775 C 1178.43 502.98 1189.51 502.934 1202.82 505.071 C 1202.61 509.474 1201.89 517.119 1199.62 520.913 C 1198.02 532.173 1190.69 543.002 1178.16 541.61 C 1183.63 538.56 1184.62 538.034 1188.94 533.567 z"
     id="path17" />
  <path
     transform="translate(0,0)"
     fill="rgb(143,93,31)"
     d="M 1188.94 533.567 C 1192.4 529.264 1195.96 525.045 1199.62 520.913 C 1198.02 532.173 1190.69 543.002 1178.16 541.61 C 1183.63 538.56 1184.62 538.034 1188.94 533.567 z"
     id="path18" />
  <path
     transform="translate(0,0)"
     fill="rgb(85,52,27)"
     d="M 801.088 577.439 C 819.212 574.221 840.275 587.09 856.156 595.117 C 857.872 591.242 858.399 588.741 861.53 587.062 C 868.594 593.85 861.171 609.488 855.187 615.621 C 839.292 618.285 811.567 597.465 795.673 593.185 C 791.99 592.194 783.418 587.648 779.962 585.51 C 789.175 579.416 790.214 578.154 801.088 577.439 z"
     id="path19" />
  <path
     transform="translate(0,0)"
     fill="rgb(116,83,46)"
     d="M 1036.42 689.145 L 1037.31 689.353 C 1028.53 695.217 994.594 712.981 984.604 715.778 L 983.885 715.627 L 983.675 714.429 C 995.622 703.283 1020.78 693.804 1036.42 689.145 z"
     id="path20" />
  <path
     transform="translate(0,0)"
     fill="rgb(116,83,46)"
     d="M 782.424 728.388 C 793.482 726.941 824.025 731.087 829.994 740.899 C 820.934 741.317 791.728 731.416 782.424 728.388 z"
     id="path21" />
  <path
     transform="translate(0,0)"
     fill="rgb(85,52,27)"
     d="M 981.633 743.176 C 997.141 739.118 1028.22 740.112 1044.14 742.263 L 1042.07 745.067 C 1023.79 745.153 999.864 744.343 981.633 743.176 z"
     id="path22"
     style="fill:#75552f;fill-opacity:1" />
  <path
     transform="translate(0,0)"
     fill="rgb(116,83,46)"
     d="M 942.116 574.586 L 943.453 576.179 C 945.135 587.337 947.869 593.783 952.499 604.082 L 951.434 606.251 C 937.685 601.729 935.976 586.065 942.116 574.586 z"
     id="path23" />
  <path
     transform="translate(0,0)"
     fill="rgb(116,83,46)"
     d="M 830.737 766.641 C 831.657 766.504 831.112 766.485 832.324 767.035 C 815.563 772.727 795.027 779.415 778.21 784.28 L 775.839 783.841 C 778.651 780.443 806.885 770.515 812.671 769.137 C 815.843 768.382 827.045 767.057 830.737 766.641 z"
     id="path24" />
  <path
     transform="translate(0,0)"
     fill="rgb(116,83,46)"
     d="M 1022.64 718.23 C 1028.99 717.683 1035.18 718.097 1041.55 718.327 C 1030.34 720.984 1019.97 723.896 1008.5 724.983 C 1002.49 726.168 994.785 726.965 988.599 727.764 C 999.673 723.564 1011.15 720.976 1022.64 718.23 z"
     id="path25" />
  <path
     transform="translate(0,0)"
     fill="rgb(116,83,46)"
     d="M 807.732 751.449 C 812.302 750.85 825.2 752.394 830.467 752.937 C 824.918 754.079 813.273 755.839 807.758 755.449 C 802.871 755.492 790.157 755.884 786.091 753.873 C 793.92 752.531 799.772 752.041 807.732 751.449 z"
     id="path26" />
  <path
     transform="translate(0,0)"
     fill="rgb(85,52,27)"
     d="M 871.277 588.56 C 875.059 597.423 874.255 606.798 867.845 614.09 C 863.505 608.55 869.262 595.142 871.277 588.56 z"
     id="path27" />
  <path
     transform="translate(0,0)"
     fill="rgb(116,83,46)"
     d="M 1044.14 742.263 L 1057.02 744.565 C 1052.15 744.761 1046.91 745.085 1042.07 745.067 L 1044.14 742.263 z"
     id="path29" />
  <path
     transform="translate(0,0)"
     fill="rgb(116,83,46)"
     d="M 1304.32 1253.32 C 1314 1232.83 1321.66 1243.09 1338.25 1228.18 C 1353.5 1214.48 1364.37 1198.12 1374.26 1180.38 C 1376.53 1226 1374.63 1265.09 1383.34 1311.12 C 1400.15 1399.98 1434.04 1481.31 1393.33 1570.19 C 1378.99 1601.91 1355.11 1650.31 1325.34 1670.68 C 1293.17 1663.49 1271.86 1664.61 1241.96 1678.69 C 1281.54 1671.85 1322.95 1675.61 1356.34 1699.39 C 1370.94 1709.79 1377.23 1717.6 1388.9 1730.66 C 1383.14 1730.52 1377.4 1730.31 1371.64 1730.48 C 1346.71 1712.66 1343.83 1704.93 1311.59 1692.45 C 1321.45 1702.08 1358.01 1726.75 1349.73 1741.2 C 1342.62 1745.05 1317.46 1734.74 1310.81 1730.38 C 1296.8 1721.22 1288.22 1710.55 1272.26 1704.06 C 1280.3 1713.83 1288.48 1724.83 1294.7 1735.89 C 1293.27 1738.34 1292.14 1740.16 1290.94 1742.76 C 1258.45 1736.54 1208.94 1720.03 1182.19 1700.8 C 1166.56 1689.56 1159.72 1678.09 1140.35 1669.44 C 1086.77 1645.5 1013.07 1645.77 956.678 1659.69 C 941.304 1663.49 923.896 1668.65 910.75 1677.78 C 903.013 1683.15 897.401 1693.17 889.344 1697.25 C 873.696 1705.16 760.465 1736.13 748.128 1733.65 C 746.688 1733.36 745.597 1732.65 744.411 1731.84 C 740.254 1721.01 768.878 1700.88 776.952 1694.38 C 753.998 1700.81 745.211 1711.43 726.088 1723.83 C 720.099 1727.71 697.608 1736.39 693.858 1726.75 C 698.198 1713.69 730.371 1693.85 742.049 1686.21 C 718.015 1693.68 700.361 1700.39 683.104 1719.41 C 678.829 1720.5 668.123 1723.2 664.203 1721.67 C 664.942 1716.21 678.966 1705.91 683.814 1702.17 C 706.75 1684.44 734.733 1676.62 763.126 1673.39 C 771.207 1672.47 797.024 1673.46 801.222 1670.63 C 796.932 1666.13 785.753 1666.3 781.07 1663.44 C 731.9 1632.64 695.331 1573.54 683.452 1517.32 C 671.534 1460.93 694.417 1407.48 708.065 1354.09 C 714.921 1327.27 716.236 1294.7 714.729 1267.31 C 723.347 1268.99 733.745 1270.88 742.512 1271.52 C 748.309 1285.45 752.986 1299.25 758.229 1313.32 C 762.647 1325.18 766.508 1333.59 769.847 1345.95 L 774.778 1359.2 L 778.109 1372.44 C 779.915 1374.33 781.688 1375.74 783.682 1377.41 C 791.838 1378.89 821.839 1377.81 830.992 1377.61 L 928.984 1375.13 L 1056.92 1372.26 C 1075.62 1371.84 1097.02 1372.17 1115.63 1369.74 C 1124.44 1368.59 1132.52 1357.65 1130.27 1348.33 C 1126.36 1332.21 1120.77 1316.04 1115.52 1300.1 C 1108.56 1278.69 1101.75 1257.23 1095.08 1235.73 C 1111.07 1239.65 1128.05 1245.99 1144.12 1250.66 C 1158.58 1254.86 1169.55 1257.13 1184.32 1259.97 C 1225.11 1266.89 1264.74 1267.74 1304.32 1253.32 z"
     id="path30" />
  <path
     transform="translate(0,0)"
     fill="rgb(159,112,70)"
     d="M 1095.08 1235.73 C 1111.07 1239.65 1128.05 1245.99 1144.12 1250.66 C 1158.58 1254.86 1169.55 1257.13 1184.32 1259.97 C 1187.58 1292.05 1201.81 1306.31 1208.82 1331.48 C 1204.85 1328.65 1200.12 1325.04 1195.94 1322.7 C 1200.37 1340.52 1207.04 1372.96 1207.11 1391.07 L 1198.17 1380.32 C 1194.92 1392.25 1195.69 1408.31 1194.13 1420.88 C 1190.18 1452.79 1183.26 1484.75 1168.86 1513.51 C 1167.02 1507.4 1165.02 1497.52 1163.25 1492.6 C 1148.89 1527.44 1114.99 1556.23 1081.09 1571.55 C 1081.23 1565.74 1081.2 1557.63 1081.77 1552.03 C 1031.41 1581.68 1012.56 1591.5 952.973 1575.88 C 938.47 1572.08 926.437 1568.26 913.451 1560.02 C 916.709 1569.13 918.148 1572.21 923.735 1580.62 C 882.232 1568.74 850.51 1547.34 826.504 1510.93 L 824.404 1530.92 C 805.092 1498.49 785.94 1453.07 782.494 1414.94 C 780.799 1418.77 777.749 1426.43 775.343 1429.41 C 772.903 1425.28 776.406 1377.76 778.109 1372.44 C 779.915 1374.33 781.688 1375.74 783.682 1377.41 C 791.838 1378.89 821.839 1377.81 830.992 1377.61 L 928.984 1375.13 L 1056.92 1372.26 C 1075.62 1371.84 1097.02 1372.17 1115.63 1369.74 C 1124.44 1368.59 1132.52 1357.65 1130.27 1348.33 C 1126.36 1332.21 1120.77 1316.04 1115.52 1300.1 C 1108.56 1278.69 1101.75 1257.23 1095.08 1235.73 z"
     id="path31" />
  <path
     transform="translate(0,0)"
     fill="rgb(159,112,70)"
     d="M 769.847 1345.95 L 774.778 1359.2 L 773.22 1362.62 C 770.427 1362.35 770.055 1362.35 767.406 1361.52 L 766.168 1359.07 C 767.33 1354.06 768.188 1350.81 769.847 1345.95 z"
     id="path32" />
  <path
     transform="translate(0,0)"
     fill="rgb(143,93,31)"
     d="M 773.22 1362.62 L 772.299 1366.7 L 770.085 1367.85 C 766.402 1367.29 767.962 1368.07 765.295 1365.33 C 764.408 1361.31 764.349 1363.34 766.168 1359.07 L 767.406 1361.52 C 770.055 1362.35 770.427 1362.35 773.22 1362.62 z"
     id="path33" />
  <path
     transform="translate(0,0)"
     fill="rgb(173,136,95)"
     d="M 975.848 1000.56 C 982.005 1000.15 989.266 1000.16 995.521 1000.02 C 1001.16 1013.66 1005.84 1031.02 1010.31 1045.41 C 1018.64 1071.73 1026.81 1098.09 1034.82 1124.5 C 1059.61 1202.84 1083.89 1281.34 1107.66 1359.99 C 1070.29 1362.85 1019.68 1362.25 981.129 1363.18 C 918.703 1364.68 852.069 1367.86 789.797 1367.86 C 785.186 1357.92 778.874 1338.26 774.968 1327.16 C 768.205 1307.43 761.264 1287.76 754.146 1268.16 C 755.844 1267.87 757.532 1267.52 759.206 1267.11 C 796.913 1257.84 815.012 1231.17 818.91 1196.73 C 822.004 1169.4 823.921 1182.72 804.403 1164.37 C 804.449 1164.41 804.737 1153.67 803.807 1152.6 C 787.7 1126.57 727.79 1150.76 712.508 1129.94 C 710.684 1127.46 699.386 1092.35 697.825 1087.77 C 689.139 1062.04 679.927 1036.5 670.195 1011.16 L 975.848 1000.56 z"
     id="path34" />
  <path
     transform="translate(0,0)"
     fill="rgb(116,83,46)"
     d="M 992.604 309.253 C 1022.69 306.825 1056.23 315.032 1077.68 337.232 C 1099.28 359.604 1108.87 386.114 1117.85 415.072 C 1101.91 417.763 1079.2 419.159 1062.41 421.248 C 1014.58 426.91 966.846 433.387 919.236 440.675 C 883.434 445.273 852.91 449.515 816.888 452.779 C 817.294 420.307 817.908 385.223 836.855 356.56 C 852.299 333.196 882.769 322.755 910.096 327.65 C 917.27 328.935 937.516 337.72 943.357 336.585 C 951.031 335.093 962.395 319.75 972.379 315.381 C 982.082 311.135 982.149 311.176 992.604 309.253 z"
     id="path35" />
  <path
     transform="translate(0,0)"
     fill="rgb(116,83,46)"
     d="M 1181.64 458.443 C 1187.47 458.091 1194.78 458.229 1200.72 458.194 C 1186.25 466.048 1147.75 476.084 1131.16 481.093 C 996.865 521.63 856.919 538.148 716.756 526.822 C 709.638 526.095 701.563 526.021 694.339 525.798 C 750.528 508.603 801.591 505.992 859.063 499.58 C 897.599 495.28 937.692 490.212 976.212 485.385 L 1117.94 466.362 C 1142.11 463.17 1156.67 459.904 1181.64 458.443 z"
     id="path36" />
  <path
     transform="translate(0,0)"
     fill="rgb(116,83,46)"
     d="M 698.048 1132.7 C 700.519 1133.34 700.631 1135.63 702.886 1137.81 C 721.767 1156.08 749.238 1149.66 772.956 1152.77 C 777.775 1153.4 781.486 1153.43 784.08 1156.61 C 786.426 1175.23 731.908 1183.36 719.098 1187.64 L 717.755 1188.09 C 727.849 1189.14 736.618 1189.18 746.759 1188.08 C 759.369 1186.7 794.762 1173.38 803.65 1185.31 C 805.81 1203.89 763.686 1219.16 750.803 1223.96 L 732.88 1228.47 C 757.361 1230.03 775.14 1226.6 797.082 1216.49 C 798.617 1215.79 798.498 1216.07 799.959 1216.92 C 799.928 1217.61 799.898 1218.29 799.867 1218.97 C 788.576 1241.74 756.51 1260.44 731.548 1257.28 C 720.028 1255.81 709.403 1247.88 702.752 1238.31 C 687.477 1216.35 677.564 1186.9 681.829 1160 C 683.796 1147.6 688.092 1139.78 698.048 1132.7 z"
     id="path37" />
  <path
     transform="translate(0,0)"
     fill="rgb(116,83,46)"
     d="M 668.674 1040.8 C 674.334 1048.17 693.199 1110.1 697.736 1123.4 C 695.234 1124.74 692.793 1126.18 690.418 1127.73 C 679.208 1135.17 673.573 1148.69 670.655 1161.4 C 664.79 1186.96 675.23 1219.91 689.353 1241.48 L 689.034 1242.54 L 684.831 1241.37 C 682.667 1240.25 680.576 1239 678.569 1237.62 C 641.9 1212.85 628.607 1170.13 633.179 1127.49 C 636.499 1096.53 651.306 1066.23 668.674 1040.8 z"
     id="path38" />
  <path
     transform="translate(0,0)"
     fill="rgb(218,168,123)"
     d="M 853.312 460.036 C 870.88 457.83 889.548 456.587 907.407 454.53 C 958.651 448.801 1009.78 442.125 1060.78 434.506 C 1065.06 442.022 1067.1 451.71 1063.8 459.961 C 1034.92 464.918 992.134 468.767 962.587 471.878 L 859.764 483.475 L 857.79 483.001 C 853.609 478.966 853.784 466.455 853.312 460.036 z"
     id="path39" />
  <path
     transform="translate(0,0)"
     fill="rgb(129,126,125)"
     d="M 816.313 936.251 C 829.626 932.664 843.601 934.763 849.686 948.844 C 853.471 955.676 853.935 959.315 854.526 967.125 C 855.514 970.334 855.536 970.104 857.913 972.546 C 872.618 973.826 899.144 969.883 908.032 976.641 C 908.3 981.747 909.364 987.537 908.071 992.081 C 903.426 995.29 778.934 998.911 762.624 999.499 C 759.598 993.621 758.529 990.889 757.763 984.231 C 764.834 972.477 788.007 980.678 804.129 975.245 C 805.332 968.948 800.693 959.2 803.033 950.857 C 805.133 943.369 810.114 940.163 816.313 936.251 z"
     id="path40" />
  <path
     transform="translate(0,0)"
     fill="rgb(129,126,125)"
     d="M 816.313 936.251 C 829.626 932.664 843.601 934.763 849.686 948.844 C 853.471 955.676 853.935 959.315 854.526 967.125 C 855.514 970.334 855.536 970.104 857.913 972.546 C 854.285 973.098 852.457 973.331 848.806 973.438 C 844.927 973.568 842.584 973.623 838.803 974.668 L 837.773 974.334 C 823.604 978.325 815.896 973.685 804.129 975.245 C 805.332 968.948 800.693 959.2 803.033 950.857 C 805.133 943.369 810.114 940.163 816.313 936.251 z"
     id="path41" />
  <path
     transform="translate(0,0)"
     fill="rgb(85,52,27)"
     d="M 821.119 971.858 C 814.183 968.899 810.408 961.354 812.197 954.028 C 813.987 946.702 820.816 941.748 828.336 942.32 C 835.855 942.893 841.856 948.823 842.516 956.336 C 843.176 963.848 838.303 970.734 830.998 972.61 C 827.712 973.454 824.24 973.19 821.119 971.858 z"
     id="path42" />
  <path
     transform="translate(0,0)"
     fill="rgb(116,83,46)"
     d="M 821.817 948.392 C 831.356 950.143 838.625 955.492 832.237 965.673 C 829.281 967.132 830.76 966.925 827.702 966.608 C 821.514 962.988 820.432 954.894 821.817 948.392 z"
     id="path43" />
  <path
     transform="translate(0,0)"
     fill="rgb(152,149,149)"
     d="M 804.129 975.245 C 805.332 968.948 800.693 959.2 803.033 950.857 C 805.133 943.369 810.114 940.163 816.313 936.251 L 817.964 939.027 C 814.692 943.077 811.981 945.087 809.104 948.536 C 808.546 954.686 807.311 963.799 810.532 969.693 C 812.172 972.694 814.641 972.438 817.993 973.073 L 821.119 971.858 C 824.24 973.19 827.712 973.454 830.998 972.61 L 837.773 974.334 C 823.604 978.325 815.896 973.685 804.129 975.245 z"
     id="path44" />
  <path
     transform="translate(0,0)"
     fill="rgb(152,149,149)"
     d="M 849.686 948.844 C 853.471 955.676 853.935 959.315 854.526 967.125 C 855.514 970.334 855.536 970.104 857.913 972.546 C 854.285 973.098 852.457 973.331 848.806 973.438 C 844.927 973.568 842.584 973.623 838.803 974.668 C 847.465 965.348 843.936 964.132 848.19 953.455 L 849.475 952.456 L 849.686 948.844 z"
     id="path45" />
  <path
     transform="translate(0,0)"
     fill="rgb(140,133,128)"
     d="M 854.526 967.125 C 855.514 970.334 855.536 970.104 857.913 972.546 C 854.285 973.098 852.457 973.331 848.806 973.438 C 848.085 972.7 847.791 971.886 847.275 970.913 C 847.812 968.027 847.113 969.218 849.688 967.379 C 851.336 967.435 852.893 967.354 854.526 967.125 z"
     id="path46" />
  <path
     transform="translate(0,0)"
     fill="rgb(192,191,193)"
     d="M 857.913 972.546 C 872.618 973.826 899.144 969.883 908.032 976.641 C 902.868 980.078 863.296 980.348 854.509 980.747 L 783.202 983.699 C 778.629 983.864 761.375 984.906 757.763 984.231 C 764.834 972.477 788.007 980.678 804.129 975.245 C 815.896 973.685 823.604 978.325 837.773 974.334 L 838.803 974.668 C 842.584 973.623 844.927 973.568 848.806 973.438 C 852.457 973.331 854.285 973.098 857.913 972.546 z"
     id="path47" />
  <path
     transform="translate(0,0)"
     fill="rgb(214,160,66)"
     d="M 1143.52 1011.39 L 1152.91 1015.65 L 1155.43 1016.66 C 1159.59 1019.73 1163.09 1021.85 1166.16 1025.99 L 1166.12 1028.07 L 1168.4 1030.83 C 1171.22 1033.11 1171.04 1033.23 1172.33 1036.48 C 1172.25 1037.55 1172.16 1038.62 1172.08 1039.69 C 1160.23 1055.14 1124.34 1097.33 1111.78 1108.2 C 1108.94 1108.46 1106.91 1106.68 1104.32 1105.1 C 1102.59 1104.15 1099.41 1103.97 1097.25 1103.67 C 1092.87 1102.47 1088.5 1101.85 1084.03 1101.09 C 1083.22 1100.87 1080.23 1099.43 1079.29 1099 L 1076.03 1100.9 C 1073.3 1101.01 1070.97 1101.45 1068.61 1100.25 C 1073.79 1092.47 1092.69 1070.45 1100.04 1061.97 C 1112.31 1047.8 1130.77 1023.34 1143.52 1011.39 z"
     id="path48" />
  <path
     transform="translate(0,0)"
     fill="rgb(214,160,66)"
     d="M 1143.52 1011.39 L 1152.91 1015.65 L 1155.43 1016.66 C 1144.38 1032.52 1127.19 1050.79 1114.19 1065.81 C 1104.88 1076.58 1093.36 1091.22 1084.03 1101.09 C 1083.22 1100.87 1080.23 1099.43 1079.29 1099 L 1076.03 1100.9 C 1073.3 1101.01 1070.97 1101.45 1068.61 1100.25 C 1073.79 1092.47 1092.69 1070.45 1100.04 1061.97 C 1112.31 1047.8 1130.77 1023.34 1143.52 1011.39 z"
     id="path49" />
  <path
     transform="translate(0,0)"
     fill="rgb(143,93,31)"
     d="M 1152.91 1015.65 L 1155.43 1016.66 C 1144.38 1032.52 1127.19 1050.79 1114.19 1065.81 C 1104.88 1076.58 1093.36 1091.22 1084.03 1101.09 C 1083.22 1100.87 1080.23 1099.43 1079.29 1099 C 1082.38 1093.91 1148.47 1018.77 1152.91 1015.65 z"
     id="path50" />
  <path
     transform="translate(0,0)"
     fill="rgb(214,160,66)"
     d="M 1168.4 1030.83 C 1171.22 1033.11 1171.04 1033.23 1172.33 1036.48 C 1172.25 1037.55 1172.16 1038.62 1172.08 1039.69 C 1160.23 1055.14 1124.34 1097.33 1111.78 1108.2 C 1108.94 1108.46 1106.91 1106.68 1104.32 1105.1 C 1122.77 1088.24 1149.88 1051 1168.4 1030.83 z"
     id="path51" />
  <path
     transform="translate(0,0)"
     fill="rgb(143,93,31)"
     d="M 1166.12 1028.07 L 1168.4 1030.83 C 1149.88 1051 1122.77 1088.24 1104.32 1105.1 C 1102.59 1104.15 1099.41 1103.97 1097.25 1103.67 C 1122.78 1079.09 1141.71 1052.12 1166.12 1028.07 z"
     id="path52" />
  <path
     transform="translate(0,0)"
     fill="rgb(173,136,95)"
     d="M 997.901 985.411 L 1007.03 985.534 C 1012.14 1008.34 1025.8 1049.03 1032.93 1072.51 L 1092.97 1265.14 C 1101.39 1291.82 1110.84 1320.69 1118.88 1347.67 C 1119.67 1350.3 1118.17 1354.03 1116.46 1356.19 L 1115.24 1356.02 C 1111.52 1349.91 1098.17 1303.95 1095.65 1295.24 C 1089.08 1270.47 1078.48 1239.26 1070.79 1214.34 C 1048.08 1140.76 1023.64 1067.17 1001.52 993.4 C 979.447 992.664 935.437 996.849 917.181 994.484 L 916.231 992.755 L 917.036 990.106 C 917.802 989.479 918.567 988.853 919.332 988.226 C 941.688 987.272 976.742 986.838 997.901 985.411 z"
     id="path53" />
  <path
     transform="translate(0,0)"
     fill="rgb(159,112,70)"
     d="M 1081.31 431.522 C 1090.58 429.919 1113.51 427.1 1122.69 426.792 C 1126.04 435.58 1127.46 443.375 1129.02 452.65 C 1117.23 453.599 1095.97 455.234 1084.89 457.57 L 1063.8 459.961 C 1067.1 451.71 1065.06 442.022 1060.78 434.506 C 1067.43 433.218 1074.56 432.408 1081.31 431.522 z"
     id="path54" />
  <path
     transform="translate(0,0)"
     fill="url(#Gradient1)"
     d="M 1060.78 434.506 C 1067.43 433.218 1074.56 432.408 1081.31 431.522 C 1084.68 434.534 1084.16 437.577 1084.47 442.91 C 1084.73 447.792 1084.87 452.68 1084.89 457.57 L 1063.8 459.961 C 1067.1 451.71 1065.06 442.022 1060.78 434.506 z"
     id="path55" />
  <path
     transform="translate(0,0)"
     fill="rgb(159,112,70)"
     d="M 815.279 464.272 C 825.907 462.93 843.134 460.334 853.312 460.036 C 853.784 466.455 853.609 478.966 857.79 483.001 L 859.764 483.475 C 853.968 484.811 823.219 487.08 815.004 487.832 L 815.279 464.272 z"
     id="path56" />
  <path
     transform="translate(0,0)"
     fill="rgb(218,168,123)"
     d="M 1179.09 972.793 C 1193.66 974.522 1201.83 984.94 1208.34 996.825 C 1206.34 1001.3 1200.92 1011.04 1196.11 1012.43 C 1185.87 997.904 1181.18 994.371 1165.83 985.701 C 1170.99 979.932 1173.14 977.653 1179.09 972.793 z"
     id="path57" />
  <path
     transform="translate(0,0)"
     fill="rgb(129,126,125)"
     d="M 1154.92 994.131 C 1166.85 988.658 1180.71 1005.16 1187.65 1013.44 L 1183.98 1017.84 L 1182.78 1021.98 C 1185.66 1022.95 1185.65 1022.68 1188.05 1024.35 C 1185.18 1027.32 1182.01 1031.31 1179.3 1034.52 C 1170.36 1013.27 1164.51 1014.4 1148.14 1005.3 C 1148.38 1002.64 1149.89 1001.57 1151.78 999.021 C 1153.11 997.154 1153.79 996.126 1154.92 994.131 z"
     id="path58" />
  <path
     transform="translate(0,0)"
     fill="rgb(129,126,125)"
     d="M 1154.92 994.131 C 1166.85 988.658 1180.71 1005.16 1187.65 1013.44 L 1183.98 1017.84 C 1177.94 1010.1 1169.33 1002.6 1160.5 998.197 C 1157.18 996.542 1157.4 997.079 1154.92 994.131 z"
     id="path59" />
  <path
     transform="translate(0,0)"
     fill="rgb(116,83,46)"
     d="M 1151.78 999.021 C 1153.11 997.154 1153.79 996.126 1154.92 994.131 C 1157.4 997.079 1157.18 996.542 1160.5 998.197 C 1169.33 1002.6 1177.94 1010.1 1183.98 1017.84 L 1182.78 1021.98 C 1178.95 1021.25 1176.7 1017.29 1173.61 1014.35 C 1166.65 1007.75 1160.13 1003.64 1151.78 999.021 z"
     id="path60" />
  <path
     transform="translate(0,0)"
     fill="rgb(159,112,70)"
     d="M 760.705 543.858 C 770.467 543.915 778.564 543.899 788.321 544.909 C 780.654 552.854 778.713 556.216 773.921 565.985 C 772.129 569.88 769.749 574.314 767.793 578.202 C 757.719 562.592 757.78 562.003 760.705 543.858 z"
     id="path61" />
  <path
     transform="translate(0,0)"
     fill="rgb(173,136,95)"
     d="M 738.132 995.557 C 743.354 995.221 751.775 993.157 753.643 998.709 L 752.707 1000.54 C 739.588 1003.02 704.129 1002.72 689.25 1002.94 C 684.613 1003.12 674.588 1004.77 671.829 1001.21 L 672.553 999.353 C 678.355 996.394 728.493 995.844 738.132 995.557 z"
     id="path62" />
  <path
     transform="translate(0,0)"
     fill="rgb(143,93,31)"
     d="M 1140.81 1090.45 C 1145.1 1091.03 1144.58 1090.31 1147.47 1092.63 C 1148.28 1095.52 1148.43 1096.23 1148.76 1099.21 C 1139.6 1104.54 1133.19 1106.81 1123.19 1110.09 C 1128.89 1103.19 1135.45 1097.84 1140.81 1090.45 z"
     id="path63" />
  <path
     transform="translate(0,0)"
     fill="rgb(140,133,128)"
     d="M 1187.65 1013.44 C 1189.45 1016.18 1191.04 1017.76 1190.79 1020.93 C 1189.72 1022.46 1189.43 1023.21 1188.05 1024.35 C 1185.65 1022.68 1185.66 1022.95 1182.78 1021.98 L 1183.98 1017.84 L 1187.65 1013.44 z"
     id="path64" />
</svg>
