<?xml version="1.0" encoding="utf-8" ?><svg xmlns="http://www.w3.org/2000/svg" xmlns:xlink="http://www.w3.org/1999/xlink" width="4096" height="4096" viewBox="0 0 4096 4096"><path fill="#3A2222" d="M2431.22 748.557C2574.63 743.473 2649.54 892.569 2549.63 1003.74C2580.7 1048.27 2603.01 1106.79 2625.9 1155.97C2638 1181.96 2647.33 1210.61 2665 1233.63C2686.53 1261.68 2709.47 1288.19 2724.6 1320.45C2736.76 1345.73 2743.25 1368.75 2748.78 1396.19L2738.04 1410.29C2751.36 1460.4 2748.44 1458.38 2738.41 1507.06C2721.13 1590.98 2672.54 1638.94 2618.33 1699.7C2651.71 1736.54 2674.05 1772.91 2698.54 1815.37C2762.28 1796.52 2840.41 1775.77 2905.3 1759.99C2923.65 1769.76 2966.35 1803.59 2984.19 1817.93C3035.07 1802 3043 1804.83 3036.05 1857.66C3026.28 1932.01 3013.93 2005.92 3004.52 2080.25C3004.07 2083.78 3004.25 2093.34 3006.33 2096.9C3026.83 2121.55 3055.89 2138.59 3070.16 2168.96C3106.25 2242.1 3077.68 2338.59 3020.91 2393.14C3002.41 2410.92 2977.79 2422.72 2955.28 2434.25C2948.76 2468.35 2943.24 2517.8 2938.64 2552.91C2915.92 2572.65 2833.42 2601.77 2802.55 2619.38C2900.67 2681.62 2934.83 2783.99 2915.56 2895.67C2948.83 2882.12 2971.36 2869.04 3001.76 2895.53C3007.12 2909.15 3007.77 2910.21 3009.43 2925.13C3026.8 2929.47 3041.06 2934.46 3043.74 2954.53C3050.03 3008.16 2999.05 3039.17 2969.79 3078.72C2912.71 3155.89 2866.73 3277.17 2762.6 3298.89C2736.13 3304.41 2715.53 3282.95 2694.26 3272.88C2684.31 3268.17 2668.64 3268.69 2657.8 3267.02C2514.1 3252.93 2372.83 3241.46 2228.17 3244.44C2134.52 3246.37 2041.62 3252.63 1948.51 3262.96C1922.7 3265.82 1883.67 3268.14 1858.92 3272.73C1826.08 3278.82 1803.27 3329.8 1762.31 3331.59C1734.53 3332.8 1718.32 3322.75 1698.59 3306.03C1547.52 3314.69 1391.58 3271.42 1299.3 3144.7C1245.03 3144.87 1217.78 3145.09 1164.55 3131.03C1092.08 3110.43 1025.13 3073.88 968.604 3024.07C933.404 2992.72 897.567 2950.74 894.936 2901.86C857.7 2863.92 845.426 2815.8 846.337 2763.88C845.998 2691.88 861.923 2636.57 914.819 2585.49C958.274 2543.53 1004.08 2540.5 1059.14 2560.07C1116.86 2580.59 1127.66 2620.64 1156.73 2669.27C1167.64 2687.51 1184.27 2706.93 1198.99 2722.27C1219.28 2581.09 1244.92 2458.12 1298.13 2324.76C1290.6 2294.54 1277.73 2269.81 1270.85 2234.11C1247.94 2115.36 1286.74 2005.74 1332.37 1898.56C1264.17 1824.36 1202.29 1736 1137.99 1657.89C1110.23 1624.17 1077.24 1582.71 1054.15 1546.49C1058.75 1542.59 1060.59 1541.3 1064.43 1536.59L1063.47 1531.93C1056.34 1523.71 1037.82 1518.51 1026.71 1514.24C1006.7 1476.91 921.767 1300.21 931.351 1267.02C932.296 1263.75 934.447 1262.81 937.538 1261.63C968.33 1249.86 1142.54 1314.4 1173.13 1330.07C1181.56 1342.1 1189.6 1355 1197.56 1367.4C1201.3 1363.86 1205 1360.27 1208.66 1356.64C1213.71 1355.27 1216.25 1354.14 1221.12 1357.41C1279.35 1396.5 1333.35 1443.03 1389.2 1485.56C1401.44 1494.89 1412.33 1523.33 1426.75 1527.81C1430.61 1521.16 1428.31 1509.08 1426.3 1501.81C1418.66 1474.14 1432.99 1478.92 1416.33 1453.7C1419.63 1426.22 1420.17 1418.57 1431.03 1393.75C1427.49 1391.04 1419.68 1384.41 1419.62 1380.29C1418.97 1335.35 1470.89 1284.8 1487.01 1248.87C1515.59 1185.2 1530.73 1119.46 1561.59 1059.16C1539.44 1038.04 1515.32 1020.3 1500.58 992.479C1462.14 919.918 1478.72 834.508 1543.21 783.163C1573.72 758.868 1612.79 748.037 1651.45 753.163C1707.6 760.239 1748.8 791.873 1782.43 835.5C1788.24 832.78 1794.1 830.178 1800.02 827.696C1962.16 760.137 2164.68 754.78 2327.46 822.538C2353.88 785.687 2388.05 761.537 2431.22 748.557Z"/><path fill="#C3945F" d="M1597.77 1052.36C1554.48 1014.88 1515.66 984.941 1511.4 923.523C1508.71 888.205 1520.54 853.318 1544.16 826.921C1596.14 768.244 1676.41 771.196 1731.28 823.252C1747.59 838.72 1761.62 855.534 1776.11 872.664C1949.41 799.807 2134.68 779.653 2312.76 852.794C2422.27 897.216 2511.02 981.293 2561.28 1088.25C2583.74 1135.19 2601.88 1184.86 2625.67 1231.08C2640.32 1259.56 2664.99 1285.41 2682.28 1312.59C2698.35 1337.84 2706.57 1359.15 2715.37 1387.49L2700.08 1399.83C2706 1421.01 2714.12 1447.73 2717.89 1468.95L2701.26 1485.8C2708.55 1540.52 2684.76 1571.87 2653.36 1615.36C2617.44 1665.12 2559.07 1698.84 2504.77 1724.69C2493.89 1729.74 2462.08 1744.08 2454.39 1750.81L2455.39 1753.83C2487.29 1766.72 2562.8 1733.03 2591.31 1718.07C2625.45 1754.22 2644.83 1784.6 2668.13 1828.85C2580.75 1869.03 2519.71 1906.91 2469.43 1993.02C2446.62 1967.58 2428.65 1947.41 2402 1925.38C2270.7 1816.89 2096.34 1823.19 1940 1774.94C1907.86 1795.77 1873.79 1819.83 1837.59 1832.29C1825.62 1828.82 1810.4 1822.46 1799.46 1827.92C1772.58 1863.03 1769.49 2072.99 1751.38 2126.32C1749.68 2131.33 1748.35 2131 1744.08 2133.56C1738.09 2133.16 1733.81 2132.72 1729.92 2127.55C1716.92 2110.23 1707.65 2087.24 1696.34 2068.87C1703.39 1978.61 1711.27 1903.52 1669.92 1819.12L1654.81 1839.57C1649.31 1806.48 1643.5 1773.45 1632.45 1741.63C1679.47 1755.47 1711.19 1759.91 1759.91 1760.04C1659.18 1714.82 1627.21 1728.92 1554.63 1639.1C1573.96 1624.83 1592.67 1609.73 1610.72 1593.87C1623.85 1578.36 1635.63 1560.38 1648.59 1545.69C1664.43 1521.24 1673.06 1503.15 1685.02 1477.05L1694.47 1453.97C1710.68 1412.38 1719.24 1365.16 1723.59 1320.89C1724.5 1311.58 1725.74 1280 1731.4 1273.36C1742.11 1278.24 1749.13 1303.42 1756.42 1314.58C1779.71 1349.72 1815.66 1374.53 1856.78 1383.84C1896.85 1392.74 1938.81 1385.16 1973.24 1362.82C2010.35 1338.76 2036.03 1300.59 2044.34 1257.14C2052.82 1214.85 2045.69 1172.22 2021.41 1136.25C1997.01 1100.25 1959.17 1075.56 1916.39 1067.72C1875.68 1060.08 1833.6 1069.13 1799.62 1092.82C1760.9 1120.11 1740.69 1157.29 1732.52 1203.2C1683.91 1205.3 1660.32 1238.12 1702.86 1271.43C1700.01 1306.5 1695.64 1341.43 1689.79 1376.12L1685.62 1396.15C1679.61 1416.83 1674.21 1434.74 1666.98 1455.11C1663.06 1464.4 1658.75 1475.73 1653.67 1484.23C1623.16 1547.56 1596.86 1583.06 1537.81 1620.23C1496.83 1581.13 1472.06 1565.77 1467.07 1508.74L1453.59 1494.98C1457.32 1481.03 1460.89 1466.55 1465.82 1453.02L1448.6 1440.64C1455.44 1423.64 1466.51 1398.16 1472.12 1381.47L1454.08 1369.68C1472.49 1320.72 1501.61 1294.72 1520.07 1252.56C1548.18 1188.4 1564.69 1115.61 1597.77 1052.36Z"/><path fill="#AF7849" d="M1685.62 1396.15C1664.64 1397.07 1593.98 1391.69 1579.97 1377.42C1577.92 1370.56 1577.69 1373.8 1580.47 1367.38C1601.73 1348.72 1667.57 1365.44 1689.79 1376.12L1685.62 1396.15Z"/><path fill="#AF7849" d="M1648.59 1545.69C1674.11 1543.34 1706.12 1510.43 1732.71 1519.88L1733.88 1523.17C1721.68 1545.53 1636.08 1583.57 1610.72 1593.87C1623.85 1578.36 1635.63 1560.38 1648.59 1545.69Z"/><path fill="#AF7849" d="M1653.67 1484.23C1635.09 1483.1 1581.13 1500.66 1572.02 1486.95C1570.03 1458.04 1645.7 1456.27 1666.98 1455.11C1663.06 1464.4 1658.75 1475.73 1653.67 1484.23Z"/><path fill="#AF7849" d="M1685.02 1477.05L1694.47 1453.97C1705.39 1456.42 1706.64 1454.64 1713.29 1461.69C1713.59 1474.8 1695.41 1476.02 1685.02 1477.05Z"/><path fill="#FBE7C7" d="M2228.97 1168.79C2355.68 1154.26 2461.41 1302.22 2469.65 1415.1C2473.93 1477.13 2453.24 1538.3 2412.19 1585C2362.19 1642.38 2300.38 1664.82 2226.42 1670.12C2156.25 1669.84 2104.58 1655.96 2049.24 1611.52C1931.31 1516.82 1985.88 1358.19 2068.18 1260C2112.95 1206.59 2159.37 1175.42 2228.97 1168.79Z"/><path fill="#3A2222" d="M2251.5 1236.84C2274.76 1234.45 2344.82 1238.15 2359.39 1257.66C2386.93 1294.53 2308.08 1350.45 2283.89 1368.81C2283.04 1383.42 2282.38 1398.03 2281.91 1412.66C2311.04 1443.63 2366.21 1476.31 2401.76 1433.83C2408.39 1425.9 2408.88 1414 2419.98 1408.45L2422.93 1409.77C2428.69 1421.98 2423.67 1441.01 2416.53 1451.9C2401.66 1474.59 2380.24 1480.38 2355.42 1485.75C2331.75 1549.27 2318.63 1587.61 2240.95 1590.26C2182.99 1579.3 2168.78 1540.67 2154.19 1490.53C2118.5 1488.87 2067.16 1468.17 2072.3 1425.04C2078.05 1418.89 2088.03 1430.21 2093.54 1435.45C2143.81 1483.24 2210.29 1453.28 2249.33 1408.26C2250.19 1396.61 2249.95 1380.47 2250.11 1368.47C2151.61 1313.15 2090.07 1251.68 2251.5 1236.84Z"/><path fill="#FDFCFC" d="M2264.21 1443.13C2286.45 1454.76 2298.37 1466.76 2327.65 1480.42C2310.96 1529.19 2296.58 1575.56 2233.14 1559.43C2213.26 1554.38 2207.59 1548.31 2197.07 1531.12C2190.1 1515.23 2186.82 1503.99 2181.83 1487.2C2210.1 1475.86 2227.52 1467.52 2252.02 1449.86C2252.3 1467.03 2251.9 1509.92 2257.54 1524.42L2258.17 1524.68C2266.19 1506.71 2264.87 1462.84 2264.21 1443.13Z"/><path fill="#3A2222" d="M2436.95 1139.57C2438.88 1132.04 2448.66 1123.16 2454.61 1120.32C2508.13 1095.07 2534.53 1187.4 2518.67 1226.21C2509.01 1249.85 2491.17 1268.31 2462.92 1259.33C2435.25 1250.54 2418.61 1186.88 2427.8 1161.8L2429.22 1161.14C2430.93 1165.32 2430.63 1164.84 2431.45 1169.34C2431.49 1155.68 2431.35 1152.08 2436.95 1139.57Z"/><path fill="#FDFCFC" d="M2436.95 1139.57C2476.26 1130.71 2472.15 1178.9 2447.37 1183.28C2438.87 1180.72 2436.1 1177 2431.45 1169.34C2431.49 1155.68 2431.35 1152.08 2436.95 1139.57Z"/><path fill="#FBE7C7" d="M1918.98 976.157C1964.24 974.339 2040.37 1020.46 1978.06 1042.86C1974.39 1042.44 1970.75 1041.84 1967.14 1041.07C1938.89 1034.88 1859.5 1006.75 1918.98 976.157Z"/><path fill="#3A2222" d="M1606.26 846.423C1659.33 843.823 1694.45 874.76 1721.43 916.417L1699.64 937.432C1694.43 929.848 1689.1 922.342 1683.66 914.916C1647.02 866.183 1610.1 860.063 1558.92 891.212C1559.77 889.372 1560.64 887.541 1561.53 885.718C1573.31 861.699 1582.29 854.771 1606.26 846.423Z"/><path fill="#FBE7C7" d="M2408.19 970.14C2423.23 969.727 2438.93 967.401 2448.56 981.203C2454.26 1005.73 2418.87 1023.11 2400.58 1031.53C2348.34 1050.64 2360.38 993.418 2408.19 970.14Z"/><path fill="#AF7849" d="M2569.76 1499.33C2576.93 1499.92 2584.05 1501.11 2591.02 1502.9C2610.57 1508.02 2641.78 1520.25 2651.95 1539.13C2655.11 1544.99 2653.25 1549.48 2651.39 1555.63C2623.62 1557.78 2569.4 1530.28 2569.76 1499.33Z"/><path fill="#AF7849" d="M2594.68 1445.78C2615.44 1446.71 2669.7 1456.54 2681.73 1474.21C2682.44 1482.43 2683.05 1478.39 2678.46 1486.46L2675.73 1486.34C2653.69 1485.11 2607.93 1476.79 2592.81 1459.59C2590.56 1451.65 2590.75 1454.84 2594.68 1445.78Z"/><path fill="#AF7849" d="M2654.43 1374.78C2667.63 1372.83 2672.23 1372.73 2680.21 1383.02C2682.33 1402.85 2630.76 1403.6 2615.43 1405.19C2605.06 1406.73 2596.74 1406.58 2588.92 1398.95C2588.43 1381.91 2641.76 1376.02 2654.43 1374.78Z"/><path fill="#FBE7C7" d="M2769.19 2634.35C2872.35 2690.75 2890.72 2771.6 2888.03 2881.4C2757.55 2911.83 2679.87 3119.74 2677.7 3238.65C2613.62 3231.81 2549.47 3225.73 2485.25 3220.41C2465.21 3218.95 2385.27 3215.28 2371.82 3212.13C2278.31 3208.19 2195.89 3210.98 2102.93 3216.2C2095.24 3215.78 2085.75 3216.56 2077.93 3216.96C1942.7 3128.93 1930.81 2942.09 1906.88 2795.75C1902.64 2769.8 1907.87 2671.44 1917.69 2646.49L2139.34 2714.16C2181.77 2727.12 2224.91 2739.93 2267 2754.12C2295.05 2763.57 2312.09 2790.48 2343.37 2797.01C2376.07 2803.83 2417.89 2806.8 2448.64 2791.35C2466.06 2782.59 2480.87 2766.63 2497.21 2757.12C2520.66 2743.48 2547.95 2734.12 2572.15 2722.38C2604.06 2706.48 2638.9 2692.5 2671.45 2677.54C2703.78 2662.68 2736.07 2647.27 2769.19 2634.35Z"/><path fill="#C3945F" d="M2769.19 2634.35C2872.35 2690.75 2890.72 2771.6 2888.03 2881.4C2757.55 2911.83 2679.87 3119.74 2677.7 3238.65C2613.62 3231.81 2549.47 3225.73 2485.25 3220.41C2465.21 3218.95 2385.27 3215.28 2371.82 3212.13C2379.06 3212.29 2388.24 3212.68 2395.05 3209.96C2456.9 3185.32 2515.44 3117.53 2542.92 3059.02C2582.17 2975.46 2593.37 2879.89 2584.15 2788.9C2582.12 2768.86 2578.94 2741.1 2572.15 2722.38C2604.06 2706.48 2638.9 2692.5 2671.45 2677.54C2703.78 2662.68 2736.07 2647.27 2769.19 2634.35Z"/><path fill="#C3945F" d="M1318.17 2361.68C1428.32 2498.06 1562.75 2520.03 1718.06 2444.17C1709.97 2483.27 1705.37 2537.85 1701.78 2577.45C1743.24 2600.65 1867.17 2633.57 1917.69 2646.49C1907.87 2671.44 1902.64 2769.8 1906.88 2795.75C1930.81 2942.09 1942.7 3128.93 2077.93 3216.96C2085.75 3216.56 2095.24 3215.78 2102.93 3216.2C2093.05 3218.17 2032.3 3221.51 2018.03 3222.82C1965.45 3228.06 1912.96 3234.18 1860.59 3241.18C1878.57 3189.85 1885.97 3135.91 1896.82 3079.23C1904.51 3039.09 1941.37 2937.36 1892.98 2909.31C1882.05 2902.97 1860.25 2910.29 1848.99 2915.38C1819.9 2855.57 1787.43 2865.11 1750.99 2912.87C1720.7 2894.68 1695.08 2898.78 1675.06 2929.96C1621.23 3013.8 1627.29 3114.55 1645.12 3208.4C1652.68 3230.96 1660.4 3254.69 1670.83 3275.99C1436.36 3275.22 1276.26 3159.63 1237.62 2919.94C1227.39 2856.49 1219.81 2791.77 1231.91 2727.63C1233.88 2629.71 1285.26 2453.32 1318.17 2361.68Z"/><path fill="#AF7849" d="M1231.91 2727.63C1230.44 2749.02 1239.54 2774.12 1245.13 2794.84C1269.08 2883.67 1303.52 2960.06 1364.46 3030.14C1430.4 3105.96 1502.56 3156.45 1596.83 3189.93C1606.05 3193.21 1638.14 3207.18 1645.12 3208.4C1652.68 3230.96 1660.4 3254.69 1670.83 3275.99C1436.36 3275.22 1276.26 3159.63 1237.62 2919.94C1227.39 2856.49 1219.81 2791.77 1231.91 2727.63Z"/><path fill="#3A2222" d="M1586.49 2596.78C1722.16 2577.96 1875.62 2697.57 1883.8 2834.68C1884.42 2845.02 1885.63 2859.21 1882.03 2868.92L1879.39 2870.04C1868.39 2858.67 1843.19 2788.22 1832.76 2766.99C1768.77 2654.32 1652.9 2603.52 1525.71 2631.89C1499.17 2637.8 1475.53 2646.27 1450.16 2655.6C1495.88 2617.77 1526.89 2603.39 1586.49 2596.78Z"/><path fill="#78A49A" d="M1815.02 1855.42L2357.16 2027.97C2351.74 2065.12 2348.27 2105.61 2344.15 2143.17L2322.08 2338.15C2307.41 2465.41 2288.68 2600.87 2277.05 2727.68C2205.55 2709.03 2131.33 2684.43 2060.49 2662.11C1951.29 2629.66 1837.08 2596.55 1729.1 2562.08C1735.19 2518.08 1741.03 2474.04 1746.61 2429.96C1762.26 2423.72 1780.86 2418.15 1797.05 2412.88C1811.35 2438.05 1864.63 2520.35 1895.65 2515.67C1926.31 2498.44 1872.11 2392.9 1860.77 2368.45C1862.21 2366.71 1863.62 2364.94 1865.01 2363.16C1887.04 2334.78 1892.04 2324.6 1887.56 2289.31C1918.03 2249.78 1911.92 2229.25 1868.6 2207.95C1860.08 2152.02 1827.66 2146.03 1779.37 2134.6C1791.56 2042.65 1799.55 1945.62 1815.02 1855.42Z"/><path fill="#78A49A" d="M3009.79 1840.53C3016.1 1848.66 2976.58 2095.1 2972.85 2127.11C2923.92 2139.64 2876.23 2151.46 2880.61 2212.35C2836.75 2256.1 2856.47 2242.51 2868.84 2285.63C2886.26 2346.34 2875.65 2345.22 2938.64 2366.46C2930.68 2424.06 2922.14 2481.59 2913.03 2539.02C2801.48 2592.32 2676.38 2645.54 2562.52 2696.9L2502.69 2724.24C2522.46 2588.4 2537.1 2450.45 2555.07 2314.22C2567.81 2217.67 2575.45 2120.94 2589.78 2024.32C2729.77 1964.83 2870.29 1901.59 3009.79 1840.53Z"/><path fill="#C3945F" d="M1353.14 1931.28C1396.7 1995.52 1431.04 2014.74 1502.51 2038.6C1482.44 2041.93 1464.66 2044.98 1444.74 2049.53C1516.99 2083.93 1564.66 2092.3 1641.57 2106.77L1666.75 2154.05C1654.06 2165.93 1631.13 2189.02 1627.76 2206.78L1630.71 2211.71C1649.91 2210.83 1675.33 2181.7 1688.34 2176.4C1729.3 2159.71 1791.27 2153.23 1827.47 2184.23C1831.57 2187.74 1833.07 2190.47 1834.01 2195.25C1822.59 2215.3 1764.76 2202.34 1750.59 2222.62C1755.69 2245.48 1885.38 2211.17 1875.16 2259.01C1869.71 2284.53 1778.41 2298.12 1774.93 2317.24C1791.53 2328.99 1844.09 2311.97 1863.2 2305.72C1838.59 2365.63 1794.14 2387.88 1733.1 2400.49C1712.21 2403.66 1701.67 2413.81 1683.39 2423.07C1493.58 2519.2 1297.56 2383.26 1294.55 2176.63C1294.3 2159.36 1294.17 2132.64 1299.42 2116.46C1303.33 2059.64 1327.02 1983.32 1353.14 1931.28Z"/><path fill="#AF7849" d="M1733.1 2400.49C1712.21 2403.66 1701.67 2413.81 1683.39 2423.07C1493.58 2519.2 1297.56 2383.26 1294.55 2176.63C1294.3 2159.36 1294.17 2132.64 1299.42 2116.46C1301.18 2133.93 1300.7 2136.09 1306.27 2153.98C1323.2 2208.04 1353.39 2257.02 1394.07 2296.45C1475.8 2374.44 1553.67 2377.21 1660.5 2383.4C1682.47 2384.68 1707.24 2401.21 1733.1 2400.49Z"/><path fill="#C3945F" d="M883.143 2694.38C905.335 2620.71 962.808 2558.27 1046.96 2584.92C1105.22 2603.38 1107.52 2658.92 1139.51 2701.84C1157.31 2726.09 1172.53 2738.06 1196.28 2756.25C1195.12 2856.56 1194.14 2910.95 1225.45 3010.36C1241.1 3052.86 1253.48 3079.1 1274.53 3118.9C1129.01 3106.88 1004.61 3053.25 925.998 2925.34C942.825 2934.36 956.116 2940.66 973.618 2948.34C883.54 2862.23 861.837 2818.56 883.143 2694.38Z"/><path fill="#AF7849" d="M883.143 2694.38C884.658 2706.93 890.818 2722.29 895.347 2734.43C922.027 2806.05 967.863 2868.97 1027.85 2916.32C1101.87 2974.3 1144.08 2978.05 1225.45 3010.36C1241.1 3052.86 1253.48 3079.1 1274.53 3118.9C1129.01 3106.88 1004.61 3053.25 925.998 2925.34C942.825 2934.36 956.116 2940.66 973.618 2948.34C883.54 2862.23 861.837 2818.56 883.143 2694.38Z"/><path fill="#DFD0AC" d="M1200.24 1555.42C1163.77 1541.99 1072.32 1515.89 1047.64 1497C1021.79 1477.2 957.813 1313.3 956.752 1287.4C961.503 1284.81 965.708 1286.08 971.294 1286.72L962.895 1289.39C986.892 1307.27 1094.82 1394.7 1110.95 1414.95C1112.24 1426.12 1220.08 1526.63 1238.66 1546.48C1351.26 1667.69 1452.78 1798.75 1541.99 1938.08C1572.05 1984.53 1601.73 2035.74 1630.5 2083.36C1594.8 2073.78 1563.84 2069.75 1526.78 2057.73C1547.52 2053.85 1568.18 2049.55 1588.74 2044.84C1469.5 1992.52 1454.64 2022.15 1364.38 1910.04C1404.51 1919.1 1445.27 1921.3 1486.26 1919.56C1395.79 1891.19 1352.2 1904.18 1297.54 1824.73C1335.21 1835 1373.18 1843.71 1412.22 1846.47C1373.22 1829.75 1298.94 1800.09 1266.89 1777.35C1234.58 1754.41 1187.92 1682.1 1161.14 1648.28C1137.92 1618.96 1110.82 1586.98 1088.18 1557.64C1125.55 1557.82 1162.91 1557.08 1200.24 1555.42Z"/><path fill="#FBE7C7" d="M971.294 1286.72C1023.44 1297.38 1115.05 1324.6 1163.04 1346.75C1193.78 1397.18 1214.34 1452.63 1243.14 1499.19C1238.49 1460.7 1232.82 1425.21 1226.55 1386.97C1272.42 1423.1 1386.48 1498.56 1406.77 1547.08C1419.17 1576.71 1437.14 1654.67 1448.66 1689.67C1451.37 1643.87 1451.5 1615.02 1449.74 1569.02C1503.12 1613.9 1587.61 1700.17 1615.47 1763.03C1632.28 1800.93 1632.83 1912.6 1638.66 1957.19C1649.58 1930.58 1659.79 1905.73 1669.21 1878.58C1679.69 1934.68 1684.6 1982.77 1675.44 2039.99C1549.85 1844.57 1398.19 1667.18 1224.65 1512.75C1189.09 1480.67 1149.04 1443.1 1110.95 1414.95C1094.82 1394.7 986.892 1307.27 962.895 1289.39L971.294 1286.72Z"/><path fill="#FBE7C7" d="M2468.98 2028.51C2493.23 2002.07 2507.32 1973.44 2535.85 1944.61C2640.42 1838.93 2769.54 1825.77 2902.46 1783.89C2907.83 1789.04 2913.93 1794.18 2919.56 1799.11C2924.98 1802.89 2925.94 1803.35 2930.61 1808.3C2938.38 1814.28 2956.51 1825.06 2965.47 1830.76C2914.47 1854.04 2864.16 1872.72 2813.54 1895.02L2534.29 2021.35C2498.53 2037.29 2471.49 2036.51 2432.88 2030.6C2411.64 2027.35 2390.81 2012.33 2371.12 2003.92C2358.62 1998.58 2342.48 1993.85 2329.24 1989.69L2067.08 1907.17C2002.21 1886.97 1933.24 1867.04 1870.13 1843.17C1884.77 1836.3 1896.68 1829.91 1910.85 1822.05C1954.77 1837.89 2028.2 1853.98 2074.52 1857.81L1926.36 1814.1L1942.61 1799.37C1984.29 1813.62 2040.4 1823.07 2084 1830.96C2203.56 1852.58 2324.6 1880.41 2415.86 1966.83C2436.2 1986.1 2451.72 2006.61 2468.98 2028.51Z"/><path fill="#3A2222" d="M2919.56 1799.11C2924.98 1802.89 2925.94 1803.35 2930.61 1808.3C2889.46 1823.24 2834.78 1837.38 2792.12 1846.3C2839.14 1821.94 2874.27 1818.09 2919.56 1799.11Z"/><path fill="#3A2222" d="M2128.11 1864.88C2207.69 1857.6 2365.53 1934.92 2418.74 1994.15C2407.44 1990.75 2356.82 1956.77 2344.29 1948.9C2325 1936.79 2304.99 1925.89 2284.35 1916.27C2222.42 1887.4 2185.71 1885.96 2131.78 1866.25L2128.11 1864.88Z"/><path fill="#3A2222" d="M2048.18 1882.42C2104.92 1882.35 2294.75 1948.87 2343.1 1982.28C2333.3 1980.53 2323.53 1976.74 2314.22 1973.17C2247.81 1947.65 2180.76 1925.61 2112.62 1905.15C2095.63 1900.05 2062.49 1891 2048.18 1882.42Z"/><path fill="#3A2222" d="M2825.84 1868.82L2826.23 1869.08L2826 1871.15C2788.21 1889.05 2747.81 1902.82 2709.36 1919.66C2665.08 1939.07 2623.28 1961.48 2581 1984.89C2579.24 1983.24 2579.95 1984.37 2579.71 1981.09C2632.53 1933.5 2755.55 1884.95 2825.84 1868.82Z"/><path fill="#3A2222" d="M2744.94 1854.44L2747.22 1854.69C2746.35 1858.07 2709.25 1871.2 2702.95 1873.74C2629.06 1903.48 2574.05 1944.48 2517.39 1998.84L2515.81 1999.19L2514.96 1997.14C2516.01 1995.41 2517.1 1993.7 2518.21 1992C2560.32 1927.81 2669.9 1870.29 2744.94 1854.44Z"/><path fill="#78A49A" d="M2366.89 2190.76C2371.19 2192.95 2375.54 2195.03 2379.94 2196.98C2438.3 2222.74 2482.26 2219.22 2540.92 2196.34C2537.86 2228.52 2497.52 2572.41 2491.05 2581.98C2430.78 2611.18 2379.29 2612.05 2321.02 2579.21C2335.51 2449.63 2350.8 2320.14 2366.89 2190.76Z"/><path fill="#DFD0AC" d="M1869.38 1086.92C1946.24 1076.02 2017.36 1129.54 2028.17 1206.41C2038.98 1283.28 1985.37 1354.34 1908.49 1365.06C1831.73 1375.76 1760.81 1322.27 1750.02 1245.52C1739.23 1168.78 1792.65 1097.79 1869.38 1086.92Z"/><path fill="#3A2222" d="M1874.21 1102.88C1942.1 1094.38 2004.02 1142.51 2012.53 1210.4C2021.04 1278.28 1972.91 1340.21 1905.03 1348.73C1837.13 1357.25 1775.19 1309.11 1766.68 1241.21C1758.17 1173.32 1806.31 1111.38 1874.21 1102.88Z"/><path fill="#C3945F" d="M1881.66 1120.88C1939.25 1116.56 1989.55 1159.51 1994.32 1217.07C1999.09 1274.63 1956.54 1325.26 1899.02 1330.48C1840.86 1335.75 1789.54 1292.63 1784.72 1234.43C1779.9 1176.22 1823.42 1125.24 1881.66 1120.88Z"/><path fill="#3A2222" d="M1896.69 1131.94C1974.95 1133.52 1986.02 1251.37 1915.96 1283.91C1836.23 1283.03 1825.14 1169.89 1896.69 1131.94Z"/><path fill="#FDFCFC" d="M1918.41 1161.26C1958.02 1162.2 1957.3 1188.31 1940.37 1215.98C1902.44 1218.48 1903.22 1186.69 1918.41 1161.26Z"/><path fill="#C3945F" d="M1800.28 2903.3C1846.43 2908.21 1805.17 3000.47 1818.47 3023.12C1842.19 3012.97 1850.88 2924.24 1878.7 2937.84C1901.63 2969.62 1874.28 3037.06 1866.91 3073.42C1851.51 3149.48 1848.75 3277.99 1755.66 3300.42C1632.44 3285.5 1649.4 2951.2 1719.28 2932.69C1747.3 2939.5 1729.03 3013.82 1743.6 3027.42C1749.63 3026.88 1750.33 3023.46 1752.32 3015.69C1765.56 2964.14 1758.82 2941.39 1800.28 2903.3Z"/><path fill="#C3945F" d="M2884.15 2909.4C2891.16 2912.21 2888.22 2910.05 2892.87 2916.64C2896.77 2945.39 2863.22 2973.2 2857.15 3000.49L2859.89 3003.31C2893.81 2991.43 2911.76 2955.29 2926.16 2925.99C2939.25 2918.5 2970.29 2901.63 2979.69 2921.03C2978.54 2954.92 2923 2998.61 2926.15 3019.15L2930.69 3020.47C2965.43 3014.66 2985.5 2952.19 3011.47 2960.03C3026.85 2977.29 2991.25 3014.45 2979.22 3027.18C2955.76 3052.05 2938.11 3073.53 2920.09 3102.88C2891.57 3151.46 2814.64 3288.76 2738.64 3265.4C2685.49 3249.05 2718.03 3145.72 2733.68 3109.36C2765.09 3036.42 2805.46 2942.76 2884.15 2909.4Z"/><path fill="#C3945F" d="M3004.76 2138.94L3005.81 2138.88C3015.29 2142.49 3027.31 2156.47 3032.92 2164.85C3069.36 2219.67 3057.55 2298.21 3019.53 2349.16C3002.07 2372.57 2987.81 2383.31 2963.77 2399.27L2966.34 2369.8C2974.99 2366.4 2987.17 2363.58 2989.93 2354.23C2980.28 2340.62 2884.41 2338.54 2904.39 2304.87C2911.05 2302.84 2916.29 2304.64 2923.26 2305.95C2936.13 2306.02 2983.03 2308.92 2985.88 2292.36C2971.84 2278.85 2899.73 2283.05 2889.88 2265.52C2863.75 2219.06 2971.11 2229.14 2997.04 2210.31L2995.61 2207.47C2972.28 2198.16 2916.18 2205.91 2908.46 2191.22C2917.61 2156.44 2988.91 2162.67 3004.76 2138.94Z"/><path fill="#C3945F" d="M2439.36 782.573C2463.35 780.225 2487.43 785.93 2507.82 798.789C2553.73 827.152 2577.26 884.705 2558.75 936.31C2552.09 954.861 2545.67 965.16 2534.86 981.901C2507.21 944.377 2487.46 926.339 2452.65 896.551L2437.29 883.528C2460.44 860.727 2471.62 858.349 2503.12 857.562L2525.26 870.4C2494.83 814.626 2452.1 832.565 2413.11 866.694C2395.33 855.342 2377.05 844.784 2358.34 835.051C2382.88 809.801 2404.25 789.952 2439.36 782.573Z"/><path fill="#78A49A" d="M2312.37 2660.83C2372.65 2694.71 2418.8 2689.71 2481.94 2668.16C2477.77 2694.46 2480.87 2725.01 2465.85 2747.78C2410.33 2783.95 2355.38 2784.64 2302.52 2742.47C2305.65 2713.5 2307.71 2689.84 2312.37 2660.83Z"/><path fill="#78A49A" d="M2382.99 2040.45C2389.18 2043.21 2395.43 2045.82 2401.74 2048.27C2462.84 2071.59 2501.64 2067.12 2560.01 2040.87L2550.91 2110.28C2492.68 2144.94 2433.68 2138.14 2375.61 2109.37C2377.11 2085.66 2379.98 2063.99 2382.99 2040.45Z"/><path fill="#FBE7C7" d="M1396.98 1709.35C1434.32 1725.71 1702.01 2091.03 1710.51 2136L1707.59 2139.5L1686.25 2147.01C1631.02 2044.98 1569.77 1946.1 1503.8 1850.65C1471.85 1804.42 1425.57 1754.04 1396.98 1709.35Z"/><path fill="#78A49A" d="M2372.78 2132.24C2442.99 2159.18 2475.98 2162.6 2548.66 2136.37C2547.08 2150.29 2546.06 2159.21 2542.81 2172.77C2530.58 2178.92 2517.82 2183.94 2504.68 2187.77C2453.14 2202.88 2415.02 2193.99 2369.13 2169.25L2372.78 2132.24Z"/><path fill="#78A49A" d="M2318.98 2601.82C2320.24 2602.4 2321.5 2602.98 2322.76 2603.55C2389.47 2633.36 2422.99 2631.14 2490.88 2604.99L2485.36 2642.47C2419.47 2671.49 2378.99 2672.48 2315.03 2638.9C2316.01 2626.67 2317.6 2614.06 2318.98 2601.82Z"/><path fill="#C3945F" d="M1842.29 2384.05C1854.65 2398.93 1882.74 2471.33 1884.77 2487.88C1878.85 2487.49 1877.11 2484.51 1871.36 2480.16C1850.43 2459.29 1831.15 2426.93 1815.29 2401.67L1842.29 2384.05Z"/><path fill="#DFD0AC" d="M1710.13 1222.14C1732.08 1222.78 1738.07 1233.72 1729.01 1253.19C1702.62 1251.34 1696.53 1246.07 1710.13 1222.14Z"/></svg>